<?xml version="1.0" encoding="UTF-8"?> <svg xmlns="http://www.w3.org/2000/svg" xmlns:xlink="http://www.w3.org/1999/xlink" id="Layer_2" data-name="Layer 2" viewBox="0 0 496.75 268.55"><defs><style> .cls-1 { fill: #ccb6b0; } .cls-2 { fill: url(#radial-gradient); } .cls-3 { fill: #433a33; } </style><radialGradient id="radial-gradient" cx="248.38" cy="67.94" fx="248.38" fy="67.94" r="67.94" gradientUnits="userSpaceOnUse"><stop offset="0" stop-color="#ecdcd5"></stop><stop offset="1" stop-color="#bd9071"></stop></radialGradient></defs><g id="White-bg"><g><g><path class="cls-1" d="m111.99,252.31H2.65c-.89,0-1.61-.72-1.61-1.61s.72-1.61,1.61-1.61h109.34c.89,0,1.61.72,1.61,1.61s-.72,1.61-1.61,1.61Z"></path><path class="cls-1" d="m494.1,252.31h-109.34c-.89,0-1.61-.72-1.61-1.61s.72-1.61,1.61-1.61h109.34c.89,0,1.61.72,1.61,1.61s-.72,1.61-1.61,1.61Z"></path></g><g><path class="cls-3" d="m123.11,252.5h.19c.52,2.66,3.34,6.9,7.77,6.9,2.44,0,4.72-1.31,4.72-3.3,0-4.69-12.41-4.91-12.41-11.48,0-3,2.55-5.25,6.98-5.25,3.53,0,7.02,1.42,7.02,3.41,0,1.2-1.28,2.06-2.93,2.06s-2.78-.79-2.78-1.87h.08c0,.41.45.98,1.01.98.64,0,1.13-.67,1.13-1.57,0-1.58-1.54-2.7-3.83-2.7-2.4,0-4.13,1.24-4.13,3.07,0,4.88,12.41,5.4,12.41,11.7,0,3.34-3.52,5.25-7.46,5.25-3.3,0-5.25-1.35-6.64-1.35-.52,0-.94.19-1.01.41h-.12v-6.26Z"></path><path class="cls-3" d="m147.74,268.37v.19h-7.72v-.19c1.35-.19,1.99-1.13,1.99-2.93v-22.73c0-1.84-.86-2.4-1.87-2.48v-.19l5.1-.49.52.19v7.28c.86-4.65,3.64-7.57,7.61-7.57,4.65,0,7.87,3.97,7.87,9.67,0,6.04-3.63,10.43-8.62,10.43-3.26,0-5.92-1.87-6.87-5.25v10.99c0,1.91.64,2.89,1.99,3.07Zm9.75-19.09c0-4.88-2.36-8.1-5.89-8.1-4.87,0-5.85,6.26-5.85,9.49v1.65c.22,3.07,2.03,6.04,5.29,6.04,3.71,0,6.45-3.86,6.45-9.08Z"></path><path class="cls-3" d="m172.29,239.83c-2.21,0-3.9,1.24-3.9,3.07,0,1.13.64,1.54,1.27,1.54.53,0,1.01-.3,1.01-.75h.07c0,1.31-1.42,1.99-2.89,1.99-1.54,0-3.15-.79-3.15-2.4,0-2.25,3-3.83,6.86-3.83,4.88,0,9.08,2.55,9.08,6.07v10.13c0,1.54.64,2.4,1.87,2.48v.19l-5.13,1.24-.53-.19v-6.45c-1.23,4.24-5.03,6.75-9.26,6.75-3.41,0-5.63-1.61-5.63-4.35,0-7.05,14.89-6.79,14.89-11.89,0-1.8-1.87-3.6-4.58-3.6Zm4.58,4.99c-1.16,3.07-11.17,4.39-11.17,9.9,0,2.14,1.5,3.52,3.83,3.52,3.11,0,6.53-2.51,7.35-6.83v-6.6Z"></path><path class="cls-3" d="m217.69,239.45v-.04c1.76.04,3.6,1.09,3.6,2.78,0,3.22-6.67,4.88-9.3,4.69,3.07.6,5.03,2.59,5.03,5.21,0,4.35-5.47,7.8-12.08,7.8s-11.55-3.56-11.55-8.74c0-5.78,6.08-8.51,11.89-8.51-3.23-.22-7.73-1.73-7.73-4.99,0-2.47,2.55-4.35,5.89-4.35s5.18,1.99,6.3,1.99c.75,0,.94-.86.9-1.35h.19l-1.87,8.4h-.22c0-3.86-1.17-8.66-4.76-8.66-1.88,0-3.04,1.31-3.04,3.38,0,3.11,2.59,4.95,4.91,5.44v.37c-5.13,0-8.7,3.3-8.7,8.21s3.49,8.4,8.25,8.4c4.47,0,7.87-3.11,7.87-7.27,0-2.96-1.72-4.95-4.16-4.95-1.46,0-3,.71-3,2.48,0,2.21,2.4,3.23,3.94,3.23.71,0,1.12-.23,1.5-.49l.04.04c-.6.49-1.46.75-2.48.75-2.18,0-4.24-1.24-4.24-3.19,0-2.48,3.26-3.26,5.4-3.26,3.41,0,8.36-2.06,8.36-5.29,0-.94-.41-1.84-.94-2.06Z"></path><path class="cls-3" d="m240.96,259.55h-.22l-6.26-16.58c-.9-2.44-1.87-3.04-2.7-3.34v-.19h7.58v.19c-1.28.23-1.57.98-.75,3.26l3.98,11.25,5.51-14.7h.45l5.47,14.18,3.97-10.65c.86-2.29.53-3.11-.75-3.34v-.19h3.9v.19c-.83.3-1.8.9-2.7,3.34l-6.26,16.58h-.22l-5.52-14.55-5.47,14.55Z"></path><path class="cls-3" d="m271.17,258.05c3.07,0,5.81-1.73,6.86-4.27l.26.11c-.97,3.34-4.8,5.78-9.07,5.78-5.55,0-9.41-4.13-9.38-10.13.04-6.53,4.65-10.24,9.75-10.24,4.35,0,7.65,2.74,7.65,5.81v.45h-13.36c-.18.94-.3,1.95-.3,3.04,0,5.7,3,9.45,7.58,9.45Zm2.59-12.79c0-3.3-1.8-5.59-4.43-5.59s-4.58,2.25-5.36,5.59h9.79Z"></path><path class="cls-3" d="m279.67,233.98v-.19l5.03-.49.64.19v22.8c0,1.91.64,2.89,1.99,3.07v.19h-7.72v-.19c1.35-.19,1.99-1.12,1.99-2.93v-19.95c0-1.88-.86-2.44-1.91-2.51Z"></path><path class="cls-3" d="m289.27,233.98v-.19l5.03-.49.64.19v22.8c0,1.91.64,2.89,1.99,3.07v.19h-7.72v-.19c1.35-.19,1.99-1.12,1.99-2.93v-19.95c0-1.88-.86-2.44-1.91-2.51Z"></path><path class="cls-3" d="m314.69,247.1c0-3.6-2.06-5.78-4.58-5.78-3.15,0-5.58,3.38-5.58,7.57v8.1c0,1.46.64,2.21,1.99,2.36v.19h-7.72v-.19c1.35-.15,1.99-.82,1.99-2.14v-14.59c0-1.87-.86-2.44-1.91-2.51v-.19l5.03-.49.64.19v6.3c.97-3.45,3.6-6.34,7.43-6.34s6.49,2.74,6.49,6.75v9.71c0,2.06.64,3.11,1.99,3.3v.19h-7.73v-.19c1.35-.19,1.99-1.24,1.99-3.22v-9.04Z"></path><path class="cls-3" d="m333.09,258.05c3.07,0,5.81-1.73,6.87-4.27l.26.11c-.98,3.34-4.8,5.78-9.08,5.78-5.55,0-9.41-4.13-9.38-10.13.04-6.53,4.65-10.24,9.75-10.24,4.35,0,7.65,2.74,7.65,5.81v.45h-13.35c-.19.94-.3,1.95-.3,3.04,0,5.7,3,9.45,7.57,9.45Zm2.59-12.79c0-3.3-1.8-5.59-4.42-5.59s-4.58,2.25-5.37,5.59h9.79Z"></path><path class="cls-3" d="m341.7,252.5h.19c.52,2.66,3.34,6.9,7.77,6.9,2.44,0,4.72-1.31,4.72-3.3,0-4.69-12.41-4.91-12.41-11.48,0-3,2.55-5.25,6.98-5.25,3.53,0,7.02,1.42,7.02,3.41,0,1.2-1.28,2.06-2.93,2.06s-2.78-.79-2.78-1.87h.08c0,.41.45.98,1.01.98.64,0,1.13-.67,1.13-1.57,0-1.58-1.54-2.7-3.83-2.7-2.4,0-4.13,1.24-4.13,3.07,0,4.88,12.41,5.4,12.41,11.7,0,3.34-3.52,5.25-7.46,5.25-3.3,0-5.25-1.35-6.64-1.35-.52,0-.94.19-1.01.41h-.12v-6.26Z"></path><path class="cls-3" d="m358.42,252.5h.19c.52,2.66,3.34,6.9,7.76,6.9,2.44,0,4.73-1.31,4.73-3.3,0-4.69-12.41-4.91-12.41-11.48,0-3,2.55-5.25,6.98-5.25,3.52,0,7.01,1.42,7.01,3.41,0,1.2-1.28,2.06-2.92,2.06s-2.78-.79-2.78-1.87h.07c0,.41.45.98,1.01.98.64,0,1.12-.67,1.12-1.57,0-1.58-1.54-2.7-3.83-2.7s-4.12,1.24-4.12,3.07c0,4.88,12.41,5.4,12.41,11.7,0,3.34-3.52,5.25-7.46,5.25-3.3,0-5.25-1.35-6.64-1.35-.53,0-.94.19-1.01.41h-.11v-6.26Z"></path></g><g><path class="cls-3" d="m32.51,198.68l-.64,2.7H1.61v-.9c.77,0,1.25-.18,1.44-.55.19-.36.29-.89.29-1.57v-38.94c0-.69-.1-1.21-.29-1.57-.19-.36-.67-.55-1.44-.55v-.9h11.18v.9c-.77,0-1.25.18-1.44.55-.19.36-.29.89-.29,1.57v40.87h19.28c.42,0,.75-.1.96-.29.21-.19.47-.63.77-1.32h.45Z"></path><path class="cls-3" d="m68.05,198.36c.26.81.52,1.37.8,1.67.28.3.83.45,1.64.45v.9h-11.63v-.9c.94,0,1.41-.32,1.41-.96,0-.17-.08-.55-.26-1.16l-3.79-13.75h-12.34l-3.79,13.82-.13,1.03c0,.43.14.71.42.83s.78.19,1.51.19v.9h-5.53v-.9c.73,0,1.3-.11,1.7-.32.4-.21.74-.79.99-1.73l10.47-38.17-1.09-3.85h7.9l11.7,41.96Zm-17.99-36.11l-5.85,21.27h11.69l-5.85-21.27Z"></path><path class="cls-3" d="m129.83,162.08c1.3,2.21,1.96,4.66,1.96,7.36s-.59,4.97-1.76,7.2c-1.18,2.23-2.86,3.92-5.05,5.08-1.89.99-4.82,1.65-8.81,1.99-3.98.34-8.35.54-13.1.58v14.07c0,.69.09,1.21.29,1.57s.67.55,1.45.55v.9h-11.19v-.9c.77,0,1.25-.18,1.45-.55.19-.36.29-.89.29-1.57v-38.94c0-.69-.09-1.21-.29-1.57-.19-.36-.67-.55-1.45-.55v-.9h15.1c8.31,0,13.5.36,15.55,1.09,2.39.86,4.25,2.39,5.56,4.59Zm-7.36,14.04c1.11-2.01,1.67-4.15,1.67-6.43,0-2.44-.62-4.69-1.86-6.75-1.24-2.06-3-3.51-5.27-4.37-1.16-.43-2.42-.73-3.79-.9-1.37-.17-2.95-.26-4.75-.26l-5.4.07v25.7c3.56-.04,6.4-.21,8.54-.52,2.14-.3,4.18-.94,6.1-1.93,2.06-1.07,3.64-2.61,4.76-4.63Z"></path><path class="cls-3" d="m163.46,200.28c.35,0,.62-.1.84-.29.21-.19.45-.63.71-1.32h.9l-.64,2.7h-30.27v-.9c.77,0,1.25-.18,1.44-.55.19-.36.29-.89.29-1.57v-38.94c0-.69-.1-1.21-.29-1.57-.19-.36-.67-.55-1.44-.55v-.9h30.27l.64,2.7h-.9c-.26-.69-.49-1.12-.71-1.32s-.49-.29-.84-.29h-19.02v13.68h10.99c.73,0,1.24-.14,1.54-.42.3-.28.47-.83.52-1.64h.9v5.21h-.9c-.05-.82-.21-1.36-.52-1.64-.3-.28-.81-.42-1.54-.42h-10.99v28.01h19.02Z"></path><path class="cls-3" d="m204.33,198.36c.3.81.62,1.37.97,1.67.34.3.9.45,1.67.45v.9h-11.82v-.9c.94,0,1.41-.34,1.41-1.03,0-.39-.08-.75-.26-1.09l-6.94-18.51-10.15,3.79v14.71c0,.69.09,1.21.29,1.57s.67.55,1.45.55v.9h-11.19v-.9c.77,0,1.25-.18,1.45-.55s.29-.89.29-1.57v-38.94c0-.69-.09-1.21-.29-1.57s-.67-.55-1.45-.55v-.9h14.52c6.77,0,11.19.36,13.24,1.09,2.44.9,4.33,2.26,5.68,4.08,1.35,1.82,2.02,3.78,2.02,5.88,0,1.97-.6,3.78-1.8,5.43-1.2,1.65-2.93,2.88-5.2,3.69l-1.93.71,8.03,21.08Zm-25.12-15.87l11.75-5.98c2.14-1.11,3.78-2.46,4.92-4.05,1.13-1.58,1.7-3.23,1.7-4.95,0-1.84-.63-3.57-1.89-5.17-1.27-1.61-3.07-2.86-5.43-3.76-1.16-.47-2.28-.77-3.37-.9s-2.54-.19-4.33-.19h-3.34v25Z"></path><path class="cls-3" d="m241.72,198.68l-.64,2.7h-30.27v-.9c.77,0,1.25-.18,1.45-.55s.29-.89.29-1.57v-38.94c0-.69-.09-1.21-.29-1.57s-.67-.55-1.45-.55v-.9h11.19v.9c-.77,0-1.25.18-1.45.55s-.29.89-.29,1.57v40.87h19.27c.43,0,.75-.1.96-.29.21-.19.47-.63.77-1.32h.45Z"></path><path class="cls-3" d="m277.26,198.36c.26.81.53,1.37.81,1.67s.83.45,1.64.45v.9h-11.63v-.9c.94,0,1.42-.32,1.42-.96,0-.17-.09-.55-.26-1.16l-3.79-13.75h-12.34l-3.79,13.82-.13,1.03c0,.43.14.71.41.83.28.13.78.19,1.51.19v.9h-5.53v-.9c.73,0,1.3-.11,1.7-.32s.74-.79.99-1.73l10.47-38.17-1.09-3.85h7.9l11.69,41.96Zm-17.99-36.11l-5.85,21.27h11.69l-5.85-21.27Z"></path><path class="cls-3" d="m339.71,157.3c-.77,0-1.25.18-1.44.55s-.29.89-.29,1.57v38.94c0,.69.1,1.21.29,1.57s.67.55,1.44.55v.9h-11.18v-.9c.77,0,1.25-.18,1.45-.55.19-.36.29-.89.29-1.57v-26.09h-17.99v26.09c0,.69.1,1.21.29,1.57.19.36.67.55,1.44.55v.9h-11.18v-.9c.77,0,1.25-.18,1.44-.55.19-.36.29-.89.29-1.57v-38.94c0-.69-.1-1.21-.29-1.57-.19-.36-.67-.55-1.44-.55v-.9h11.18v.9c-.77,0-1.25.18-1.44.55-.19.36-.29.89-.29,1.57v11.76h17.99v-11.76c0-.69-.1-1.21-.29-1.57-.19-.36-.67-.55-1.45-.55v-.9h11.18v.9Z"></path><path class="cls-3" d="m354.33,198.23c-3.53-2.23-6.21-5.18-8.03-8.87-1.82-3.68-2.73-7.58-2.73-11.69,0-3.77.78-7.27,2.35-10.51,1.56-3.23,3.93-5.84,7.1-7.81,3.17-1.97,7-2.95,11.5-2.95s8.71,1.13,12.12,3.4c3.4,2.27,5.98,5.22,7.74,8.84,1.76,3.62,2.64,7.44,2.64,11.47,0,3.69-.75,7.11-2.25,10.28-1.5,3.17-3.76,5.76-6.78,7.77-3.02,2.02-6.71,3.09-11.09,3.21-4.84.13-9.03-.92-12.56-3.15Zm19.79-.42c1.91-1.61,3.32-3.75,4.24-6.43.92-2.67,1.39-5.62,1.39-8.83,0-3.98-.67-7.9-2.03-11.76-1.35-3.86-3.25-7.01-5.72-9.48-2.46-2.46-5.3-3.69-8.51-3.69-2.79,0-5.12.8-7.01,2.41-1.88,1.61-3.29,3.74-4.21,6.4-.92,2.66-1.38,5.59-1.38,8.8,0,4.03.66,7.97,1.99,11.82,1.33,3.85,3.22,7.01,5.69,9.48,2.46,2.46,5.3,3.69,8.51,3.69,2.78,0,5.13-.81,7.03-2.41Z"></path><path class="cls-3" d="m416.75,156.4h5.98v.9c-.13,0-.47.01-1.02.03-.56.02-.94.19-1.12.52-.19.32-.29.82-.29,1.51v22.23c0,3.73-.26,6.99-.77,9.8-.51,2.81-1.64,5.22-3.37,7.23-1.74,2.02-4.3,3.09-7.68,3.21-4.75.21-8.29-.52-10.6-2.22-2.32-1.69-3.77-3.93-4.37-6.71-.6-2.78-.9-6.43-.9-10.92v-22.55c0-.69-.09-1.21-.29-1.57-.19-.36-.67-.55-1.45-.55v-.9h11.19v.9c-.77,0-1.25.18-1.45.55-.19.36-.29.89-.29,1.57v22.55c0,4.03.14,7.28.42,9.77.28,2.48.99,4.6,2.15,6.36,1.16,1.76,3,2.63,5.53,2.63,3.04,0,5.35-.92,6.94-2.76,1.58-1.84,2.62-4.12,3.12-6.84.49-2.72.74-5.9.74-9.54v-22.23c0-.69-.08-1.17-.26-1.45-.17-.28-.4-.44-.67-.48-.28-.04-.78-.09-1.51-.13v-.9Z"></path><path class="cls-3" d="m431.79,186.98c-.09.47-.13,1.18-.13,2.12,0,2.19.45,4.13,1.35,5.85.9,1.72,2.12,3.05,3.67,4.02,1.54.96,3.28,1.45,5.2,1.45,3,0,5.56-.79,7.68-2.38,2.12-1.58,3.18-3.7,3.18-6.36,0-1.97-.59-3.7-1.77-5.21-1.18-1.5-2.64-2.76-4.37-3.79-1.73-1.03-4.04-2.22-6.91-3.6-2.53-1.24-4.53-2.28-6.01-3.12-1.47-.83-2.79-1.83-3.95-2.99-1.16-1.16-1.89-2.46-2.19-3.92-.17-.69-.26-1.41-.26-2.18,0-2.1.66-3.94,1.99-5.53,1.33-1.58,3.09-2.81,5.27-3.66,2.19-.85,4.56-1.28,7.13-1.28,3.13,0,5.99.45,8.58,1.35,2.59.9,4.65,2.24,6.17,4.02,1.52,1.78,2.24,3.93,2.15,6.46l-5.98,2.12c.04-.39.07-.92.07-1.61,0-3.73-.96-6.55-2.86-8.48-1.91-1.93-4.53-2.89-7.87-2.89-2.35,0-4.32.59-5.91,1.77-1.58,1.18-2.38,2.65-2.38,4.4s.9,3.58,2.7,5.33c.95.94,2.12,1.81,3.53,2.6,1.42.79,3.34,1.77,5.78,2.92,3.17,1.46,5.73,2.77,7.68,3.95,1.95,1.18,3.61,2.66,4.98,4.47,1.37,1.8,2.06,3.92,2.06,6.36,0,3.17-1.05,5.65-3.15,7.45-2.1,1.8-4.52,3.04-7.26,3.73-2.74.69-5.31,1.03-7.71,1.03-5.61,0-9.87-1.05-12.79-3.15-2.92-2.1-4.29-4.99-4.12-8.68l6.43-2.57Z"></path><path class="cls-3" d="m492.7,200.28c.34,0,.62-.1.84-.29.21-.19.45-.63.71-1.32h.9l-.64,2.7h-30.27v-.9c.77,0,1.25-.18,1.45-.55.19-.36.29-.89.29-1.57v-38.94c0-.69-.09-1.21-.29-1.57-.19-.36-.67-.55-1.45-.55v-.9h30.27l.64,2.7h-.9c-.26-.69-.49-1.12-.71-1.32s-.5-.29-.84-.29h-19.02v13.68h10.99c.73,0,1.24-.14,1.54-.42.3-.28.47-.83.51-1.64h.9v5.21h-.9c-.04-.82-.21-1.36-.51-1.64-.3-.28-.82-.42-1.54-.42h-10.99v28.01h19.02Z"></path></g><path class="cls-1" d="m180.55,117.69H1.61c-.89,0-1.61-.72-1.61-1.61s.72-1.61,1.61-1.61h178.94c.89,0,1.61.72,1.61,1.61s-.72,1.61-1.61,1.61Z"></path><path class="cls-1" d="m495.15,117.69h-178.95c-.89,0-1.61-.72-1.61-1.61s.72-1.61,1.61-1.61h178.95c.89,0,1.61.72,1.61,1.61s-.72,1.61-1.61,1.61Z"></path><path class="cls-2" d="m264.99,61.05c-2.53,1.96-4.84,4.21-6.96,6.69-3.26-.25-6.48-.21-9.65.19,2.53-1.96,4.84-4.21,6.96-6.69,3.26.25,6.48.21,9.65-.19Zm-6.96,7.08c-3.26.25-6.48.21-9.65-.19,2.53,1.96,4.84,4.21,6.96,6.69,3.26-.25,6.48-.21,9.65.19-2.53-1.96-4.84-4.21-6.96-6.69Zm-2.96,6.77c-2.48-2.13-4.73-4.43-6.69-6.96.4,3.18.44,6.4.19,9.65,2.48,2.13,4.73,4.43,6.69,6.96-.4-3.18-.44-6.4-.19-9.65Zm-6.88,2.69c-.25-3.26-.21-6.48.19-9.65-1.96,2.53-4.21,4.84-6.69,6.96.25,3.26.21,6.48-.19,9.65,1.96-2.53,4.21-4.84,6.69-6.96Zm-6.77-2.96c2.13-2.48,4.43-4.73,6.96-6.69-3.18.4-6.4.44-9.65.19-2.13,2.48-4.43,4.73-6.96,6.69,3.18-.4,6.4-.44,9.65-.19Zm-2.69-6.88c3.26-.25,6.48-.21,9.65.19-2.53-1.96-4.84-4.21-6.96-6.69-3.26.25-6.48.21-9.65-.19,2.53,1.96,4.84,4.21,6.96,6.69Zm2.96-6.77c2.48,2.13,4.73,4.43,6.69,6.96-.4-3.18-.44-6.4-.19-9.65-2.48-2.13-4.73-4.43-6.69-6.96.4,3.18.44,6.4.19,9.65Zm6.88-2.69c.25,3.26.21,6.48-.19,9.65,1.96-2.53,4.21-4.84,6.69-6.96-.25-3.26-.21-6.48.19-9.65-1.96,2.53-4.21,4.84-6.69,6.96Zm-14.06,48.67c.1.73.23,1.44.4,2.12.68.17,1.38.3,2.12.4,3.6.49,7.17.26,10.63-1.14-2.88-1.06-5.52-2.42-7.97-4.03-1.38-2.1-2.58-4.35-3.56-6.76-2.4,1.01-4.84,1.76-7.3,2.26-2.87-.59-5.7-1.5-8.48-2.79,1.46,3.44,3.82,6.13,6.7,8.32.59.45,1.18.85,1.78,1.21.6-.36,1.19-.77,1.78-1.21,1.39-1.05,2.65-2.22,3.75-3.53-.15,1.71-.08,3.43.16,5.15Zm51.26-56.79c.45-.59.85-1.18,1.21-1.78-.36-.6-.77-1.19-1.21-1.78-2.2-2.89-4.89-5.25-8.32-6.7,1.29,2.78,2.2,5.61,2.79,8.48-.51,2.46-1.25,4.9-2.26,7.3,2.42.98,4.66,2.18,6.76,3.56,1.61,2.45,2.97,5.09,4.03,7.97,1.4-3.46,1.63-7.03,1.14-10.63-.1-.73-.23-1.44-.4-2.12-.68-.17-1.38-.3-2.12-.4-1.73-.24-3.45-.3-5.15-.16,1.31-1.1,2.48-2.37,3.53-3.75Zm1.62,31.65c.73-.1,1.44-.23,2.12-.4.17-.68.3-1.38.4-2.12.49-3.6.26-7.17-1.14-10.63-1.06,2.88-2.42,5.52-4.03,7.97-2.1,1.38-4.35,2.58-6.76,3.56,1.01,2.4,1.76,4.84,2.26,7.3-.59,2.87-1.5,5.7-2.79,8.48,3.44-1.46,6.13-3.82,8.32-6.7.45-.59.85-1.18,1.21-1.78-.36-.6-.77-1.19-1.21-1.78-1.05-1.39-2.22-2.65-3.53-3.75,1.71.15,3.43.08,5.15-.16Zm-21.23,23.52c.59.45,1.18.85,1.78,1.21.6-.36,1.19-.77,1.78-1.21,2.89-2.2,5.25-4.89,6.7-8.32-2.78,1.29-5.61,2.2-8.48,2.79-2.46-.51-4.9-1.25-7.3-2.26-.98,2.42-2.18,4.66-3.56,6.76-2.45,1.61-5.09,2.97-7.97,4.03,3.46,1.4,7.03,1.63,10.63,1.14.73-.1,1.44-.23,2.12-.4.17-.68.3-1.38.4-2.12.24-1.73.3-3.45.16-5.15,1.1,1.31,2.37,2.48,3.75,3.53Zm-55.17-19.61c-.45.59-.85,1.18-1.21,1.78.36.6.77,1.19,1.21,1.78,2.2,2.89,4.89,5.25,8.32,6.7-1.29-2.78-2.2-5.61-2.79-8.48.51-2.46,1.25-4.9,2.26-7.3-2.42-.98-4.66-2.18-6.76-3.56-1.61-2.45-2.97-5.09-4.03-7.97-1.4,3.46-1.63,7.03-1.14,10.63.1.73.23,1.44.4,2.12.68.17,1.38.3,2.12.4,1.73.24,3.45.3,5.15.16-1.31,1.1-2.48,2.37-3.53,3.75Zm-1.62-31.65c-.73.1-1.44.23-2.12.4-.17.68-.3,1.38-.4,2.12-.49,3.6-.26,7.17,1.14,10.63,1.06-2.88,2.42-5.52,4.03-7.97,2.1-1.38,4.35-2.58,6.76-3.56-1.01-2.4-1.76-4.84-2.26-7.3.59-2.87,1.5-5.7,2.79-8.48-3.44,1.46-6.13,3.82-8.32,6.7-.45.59-.85,1.18-1.21,1.78.36.6.77,1.19,1.21,1.78,1.05,1.39,2.22,2.65,3.53,3.75-1.71-.15-3.43-.08-5.15.16Zm21.23-23.52c-.59-.45-1.18-.85-1.78-1.21-.6.36-1.19.77-1.78,1.21-2.89,2.2-5.25,4.89-6.7,8.32,2.78-1.29,5.61-2.2,8.48-2.79,2.46.51,4.9,1.25,7.3,2.26.98-2.42,2.18-4.66,3.56-6.76,2.45-1.61,5.09-2.97,7.97-4.03-3.46-1.4-7.03-1.63-10.63-1.14-.73.1-1.44.23-2.12.4-.17.68-.3,1.38-.4,2.12-.24,1.73-.3,3.45-.16,5.15-1.1-1.31-2.37-2.48-3.75-3.53Zm31.65-1.62c-.1-.73-.23-1.44-.4-2.12-.68-.17-1.38-.3-2.12-.4-3.6-.49-7.17-.26-10.63,1.14,2.88,1.06,5.52,2.42,7.97,4.03,1.38,2.1,2.58,4.35,3.56,6.76,2.4-1.01,4.84-1.76,7.3-2.26,2.87.59,5.7,1.5,8.48,2.79-1.46-3.44-3.82-6.13-6.7-8.32-.59-.45-1.18-.85-1.78-1.21-.6.36-1.19.77-1.78,1.21-1.39,1.05-2.65,2.22-3.75,3.53.15-1.71.08-3.43-.16-5.15Zm12.89,49.12c.42.17.74.3.99.38.26-.08.58-.21.99-.38,2.11-.87,4.13-1.86,6.06-2.97,1.11-1.93,2.1-3.95,2.97-6.06.17-.42.3-.74.38-.99,0-.03-.02-.06-.03-.09.01-.03.02-.06.03-.09-.08-.26-.21-.58-.38-.99-.87-2.11-1.86-4.13-2.97-6.06-1.93-1.11-3.95-2.1-6.06-2.97-.42-.17-.74-.3-.99-.38-.26.08-.58.21-.99.38-5.92,2.45-11.14,5.82-15.65,10.11,4.51,4.29,9.73,7.67,15.65,10.11Zm-14.99,15.96c.17.42.31.74.43.97.24.13.56.26.97.43,2.11.88,4.23,1.6,6.38,2.19,2.15-.58,4.27-1.31,6.38-2.19.42-.17.74-.31.97-.43.01-.03.03-.06.04-.09.03-.02.06-.03.09-.04.13-.24.26-.56.43-.97.88-2.11,1.6-4.23,2.19-6.38-.58-2.15-1.31-4.27-2.19-6.38-.17-.42-.31-.74-.43-.97-.24-.13-.56-.26-.97-.43-5.92-2.46-11.99-3.76-18.22-3.91.16,6.23,1.46,12.3,3.91,18.22Zm-21.88.69c-.17.42-.3.74-.38.99.08.26.21.58.38.99.87,2.11,1.86,4.13,2.97,6.06,1.93,1.11,3.95,2.1,6.06,2.97.42.17.74.3.99.38.03,0,.06-.02.09-.03.03.01.06.02.09.03.26-.08.58-.21.99-.38,2.11-.87,4.13-1.86,6.06-2.97,1.11-1.93,2.1-3.95,2.97-6.06.17-.42.3-.74.38-.99-.08-.26-.21-.58-.38-.99-2.45-5.92-5.82-11.14-10.11-15.65-4.29,4.51-7.67,9.73-10.11,15.65Zm-15.96-14.99c-.42.17-.74.31-.97.43-.13.24-.26.56-.43.97-.88,2.11-1.6,4.23-2.19,6.38.58,2.15,1.31,4.27,2.19,6.38.17.42.31.74.43.97.03.01.06.03.09.04.02.03.03.06.04.09.24.13.56.26.97.43,2.11.88,4.23,1.6,6.38,2.19,2.15-.58,4.27-1.31,6.38-2.19.42-.17.74-.31.97-.43.13-.24.26-.56.43-.97,2.46-5.92,3.76-11.99,3.91-18.22-6.23.16-12.3,1.46-18.22,3.91Zm-.69-21.88c-.42-.17-.74-.3-.99-.38-.26.08-.58.21-.99.38-2.11.87-4.13,1.86-6.06,2.97-1.11,1.93-2.1,3.95-2.97,6.06-.17.42-.3.74-.38.99,0,.03.02.06.03.09-.01.03-.02.06-.03.09.08.26.21.58.38.99.87,2.11,1.86,4.13,2.97,6.06,1.93,1.11,3.95,2.1,6.06,2.97.42.17.74.3.99.38.26-.08.58-.21.99-.38,5.92-2.45,11.14-5.82,15.65-10.11-4.51-4.29-9.73-7.67-15.65-10.11Zm14.99-15.96c-.17-.42-.31-.74-.43-.97-.24-.13-.56-.26-.97-.43-2.11-.88-4.23-1.6-6.38-2.19-2.15.58-4.27,1.31-6.38,2.19-.42.17-.74.31-.97.43-.01.03-.03.06-.04.09-.03.02-.06.03-.09.04-.13.24-.26.56-.43.97-.88,2.11-1.6,4.23-2.19,6.38.58,2.15,1.31,4.27,2.19,6.38.17.42.31.74.43.97.24.13.56.26.97.43,5.92,2.46,11.99,3.76,18.22,3.91-.16-6.23-1.46-12.3-3.91-18.22Zm21.88-.69c.17-.42.3-.74.38-.99-.08-.26-.21-.58-.38-.99-.87-2.11-1.86-4.13-2.97-6.06-1.93-1.11-3.95-2.1-6.06-2.97-.42-.17-.74-.3-.99-.38-.03,0-.06.02-.09.03-.03-.01-.06-.02-.09-.03-.26.08-.58.21-.99.38-2.11.87-4.13,1.86-6.06,2.97-1.11,1.93-2.1,3.95-2.97,6.06-.17.42-.3.74-.38.99.08.26.21.58.38.99,2.45,5.92,5.82,11.14,10.11,15.65,4.29-4.51,7.67-9.73,10.11-15.65Zm15.96,14.99c.42-.17.74-.31.97-.43.13-.24.26-.56.43-.97.88-2.11,1.6-4.23,2.19-6.38-.58-2.15-1.31-4.27-2.19-6.38-.17-.42-.31-.74-.43-.97-.03-.01-.06-.03-.09-.04-.02-.03-.03-.06-.04-.09-.24-.13-.56-.26-.97-.43-2.11-.88-4.23-1.6-6.38-2.19-2.15.58-4.27,1.31-6.38,2.19-.42.17-.74.31-.97.43-.13.24-.26.56-.43.97-2.46,5.92-3.76,11.99-3.91,18.22,6.23-.16,12.3-1.46,18.22-3.91Zm32.74-19.62c-2.73-1.28-5.41-2.68-8.15-3.96-3.38-1.57-6.84-2.89-10.67-2.93-.59,0-1.17.04-1.73.14,0-.05.02-.1.03-.16-.05,0-.1.02-.16.03.1-.56.14-1.14.14-1.73-.04-3.82-1.36-7.28-2.93-10.67-1.27-2.74-2.68-5.42-3.96-8.15-1.37-2.93-2.74-5.86-3.25-9.12-2.67,1.95-5.71,3.05-8.75,4.15-2.84,1.03-5.72,1.93-8.56,2.97-3.5,1.28-6.88,2.79-9.61,5.47-.42.41-.8.86-1.13,1.32-.03-.04-.06-.09-.09-.13-.03.04-.06.09-.09.13-.33-.47-.71-.91-1.13-1.32-2.73-2.68-6.11-4.19-9.61-5.47-2.84-1.04-5.72-1.94-8.56-2.97-3.04-1.1-6.08-2.2-8.75-4.15-.51,3.27-1.88,6.2-3.25,9.12-1.28,2.73-2.68,5.41-3.96,8.15-1.57,3.38-2.89,6.84-2.93,10.67,0,.59.04,1.17.14,1.73-.05,0-.1-.02-.16-.03,0,.05.02.1.03.16-.56-.1-1.14-.14-1.73-.14-3.82.04-7.28,1.36-10.67,2.93-2.74,1.27-5.42,2.68-8.15,3.96-2.93,1.37-5.86,2.74-9.12,3.25,1.95,2.67,3.05,5.71,4.15,8.75,1.03,2.84,1.93,5.72,2.97,8.56,1.28,3.5,2.79,6.88,5.47,9.61.41.42.86.8,1.32,1.13-.04.03-.09.06-.13.09.04.03.09.06.13.09-.47.33-.91.71-1.32,1.13-2.68,2.73-4.19,6.11-5.47,9.61-1.04,2.84-1.94,5.72-2.97,8.56-1.1,3.04-2.2,6.08-4.15,8.75,3.27.51,6.2,1.88,9.12,3.25,2.73,1.28,5.41,2.68,8.15,3.96,3.38,1.57,6.84,2.89,10.67,2.93.59,0,1.17-.04,1.73-.14,0,.05-.02.1-.03.16.05,0,.1-.02.16-.03-.1.56-.14,1.14-.14,1.73.04,3.82,1.36,7.28,2.93,10.67,1.27,2.74,2.68,5.42,3.96,8.15,1.37,2.93,2.74,5.86,3.25,9.12,2.67-1.95,5.71-3.05,8.75-4.15,2.84-1.03,5.72-1.93,8.56-2.97,3.5-1.28,6.88-2.79,9.61-5.47.42-.41.8-.86,1.13-1.32.03.04.06.09.09.13.03-.04.06-.09.09-.13.33.47.71.91,1.13,1.32,2.73,2.68,6.11,4.19,9.61,5.47,2.84,1.04,5.72,1.94,8.56,2.97,3.04,1.1,6.08,2.2,8.75,4.15.51-3.27,1.88-6.2,3.25-9.12,1.28-2.73,2.68-5.41,3.96-8.15,1.57-3.38,2.89-6.84,2.93-10.67,0-.59-.04-1.17-.14-1.73.05,0,.1.02.16.03,0-.05-.02-.1-.03-.16.56.1,1.14.14,1.73.14,3.82-.04,7.28-1.36,10.67-2.93,2.74-1.27,5.42-2.68,8.15-3.96,2.93-1.37,5.86-2.74,9.12-3.25-1.95-2.67-3.05-5.71-4.15-8.75-1.03-2.84-1.93-5.72-2.97-8.56-1.28-3.5-2.79-6.88-5.47-9.61-.41-.42-.86-.8-1.32-1.13.04-.03.09-.06.13-.09-.04-.03-.09-.06-.13-.09.47-.33.91-.71,1.32-1.13,2.68-2.73,4.19-6.11,5.47-9.61,1.04-2.84,1.94-5.72,2.97-8.56,1.1-3.04,2.2-6.08,4.15-8.75-3.27-.51-6.2-1.88-9.12-3.25Zm-16.34,31.48c.38,1.2.78,2.36,1,3.55.28,1.55.25,3.16.46,4.73.09.69.28,1.46.68,2.01,3.2,4.3,7.3,7.68,11.35,11.12.94.8,1.88,1.59,2.72,2.5-5.38-3.3-10.69-6.69-15.07-11.69-.16.52-.23.87-.37,1.2-.2.49-.4.99-.6,1.49-.5.2-.99.4-1.49.6-.33.13-.68.21-1.2.37.41.36.81.72,1.19,1.09-.54-.01-1.07-.04-1.61-.07.26.48.45.78.59,1.11.21.49.42.98.63,1.47-.21.49-.42.98-.63,1.47-.14.33-.33.63-.59,1.11,6.63-.44,12.78.91,18.92,2.39-1.24.05-2.47-.06-3.69-.16-5.29-.43-10.59-.94-15.88-.16-.67.1-1.35.51-1.9.94-1.26.96-2.37,2.12-3.67,3.02-1,.69-2.1,1.22-3.22,1.8-.01.03-.03.06-.04.09-.03.01-.06.03-.09.04-.58,1.12-1.12,2.22-1.8,3.22-.9,1.3-2.05,2.41-3.02,3.67-.42.55-.84,1.23-.94,1.9-.78,5.3-.26,10.59.16,15.88.1,1.23.21,2.45.16,3.69-1.47-6.14-2.83-12.29-2.39-18.92-.48.26-.78.45-1.11.59-.49.21-.98.42-1.47.63-.49-.21-.98-.42-1.47-.63-.33-.14-.63-.33-1.11-.59.04.54.06,1.08.07,1.61-.37-.39-.73-.79-1.09-1.19-.16.52-.23.87-.37,1.2-.2.49-.4.99-.6,1.49-.5.2-.99.4-1.49.6-.33.13-.68.21-1.2.37,5,4.37,8.39,9.68,11.69,15.07-.92-.84-1.71-1.79-2.5-2.72-3.44-4.04-6.82-8.15-11.12-11.35-.54-.4-1.31-.59-2.01-.68-1.57-.21-3.18-.18-4.73-.46-1.19-.22-2.35-.62-3.55-1-.03,0-.06.02-.09.03-.03,0-.06-.02-.09-.03-1.2.38-2.36.78-3.55,1-1.55.28-3.16.25-4.73.46-.69.09-1.46.28-2.01.68-4.3,3.2-7.68,7.3-11.12,11.35-.8.94-1.59,1.88-2.5,2.72,3.3-5.38,6.69-10.69,11.69-15.07-.52-.16-.87-.23-1.2-.37-.49-.2-.99-.4-1.49-.6-.2-.5-.4-.99-.6-1.49-.13-.33-.21-.68-.37-1.2-.36.41-.72.81-1.09,1.19.01-.54.04-1.07.07-1.61-.48.26-.78.45-1.11.59-.49.21-.98.42-1.47.63-.49-.21-.98-.42-1.47-.63-.33-.14-.63-.33-1.11-.59.44,6.63-.91,12.78-2.39,18.92-.05-1.24.06-2.47.16-3.69.43-5.29.94-10.59.16-15.88-.1-.67-.51-1.35-.94-1.9-.96-1.26-2.12-2.37-3.02-3.67-.69-1-1.22-2.1-1.8-3.22-.03-.01-.06-.03-.09-.04-.01-.03-.03-.06-.04-.09-1.12-.58-2.22-1.12-3.22-1.8-1.3-.9-2.41-2.05-3.67-3.02-.55-.42-1.23-.84-1.9-.94-5.3-.78-10.59-.26-15.88.16-1.23.1-2.45.21-3.69.16,6.14-1.47,12.29-2.83,18.92-2.39-.26-.48-.45-.78-.59-1.11-.21-.49-.42-.98-.63-1.47.21-.49.42-.98.63-1.47.14-.33.33-.63.59-1.11-.54.04-1.08.06-1.61.07.39-.37.79-.73,1.19-1.09-.52-.16-.87-.23-1.2-.37-.49-.2-.99-.4-1.49-.6-.2-.5-.4-.99-.6-1.49-.13-.33-.21-.68-.37-1.2-4.37,5-9.68,8.39-15.07,11.69.84-.92,1.79-1.71,2.72-2.5,4.04-3.44,8.15-6.82,11.35-11.12.4-.54.59-1.31.68-2.01.21-1.57.18-3.18.46-4.73.22-1.19.62-2.35,1-3.55,0-.03-.02-.06-.03-.09,0-.03.02-.06.03-.09-.38-1.2-.78-2.36-1-3.55-.28-1.55-.25-3.16-.46-4.73-.09-.69-.28-1.46-.68-2.01-3.2-4.3-7.3-7.68-11.35-11.12-.94-.8-1.88-1.59-2.72-2.5,5.38,3.3,10.69,6.69,15.07,11.69.16-.52.23-.87.37-1.2.2-.49.4-.99.6-1.49.5-.2.99-.4,1.49-.6.33-.13.68-.21,1.2-.37-.41-.36-.81-.72-1.19-1.09.54.01,1.07.04,1.61.07-.26-.48-.45-.78-.59-1.11-.21-.49-.42-.98-.63-1.47.21-.49.42-.98.63-1.47.14-.33.33-.63.59-1.11-6.63.44-12.78-.91-18.92-2.39,1.24-.05,2.47.06,3.69.16,5.29.43,10.59.94,15.88.16.67-.1,1.35-.51,1.9-.94,1.26-.96,2.37-2.12,3.67-3.02,1-.69,2.1-1.22,3.22-1.8.01-.03.03-.06.04-.09.03-.01.06-.03.09-.04.58-1.12,1.12-2.22,1.8-3.22.9-1.3,2.05-2.41,3.02-3.67.42-.55.84-1.23.94-1.9.78-5.3.26-10.59-.16-15.88-.1-1.23-.21-2.45-.16-3.69,1.47,6.14,2.83,12.29,2.39,18.92.48-.26.78-.45,1.11-.59.49-.21.98-.42,1.47-.63.49.21.98.42,1.47.63.33.14.63.33,1.11.59-.04-.54-.06-1.08-.07-1.61.37.39.73.79,1.09,1.19.16-.52.23-.87.37-1.2.2-.49.4-.99.6-1.49.5-.2.99-.4,1.49-.6.33-.13.68-.21,1.2-.37-5-4.37-8.39-9.68-11.69-15.07.92.84,1.71,1.79,2.5,2.72,3.44,4.04,6.82,8.15,11.12,11.35.54.4,1.31.59,2.01.68,1.57.21,3.18.18,4.73.46,1.19.22,2.35.62,3.55,1,.03,0,.06-.02.09-.03.03,0,.06.02.09.03,1.2-.38,2.36-.78,3.55-1,1.55-.28,3.16-.25,4.73-.46.69-.09,1.46-.28,2.01-.68,4.3-3.2,7.68-7.3,11.12-11.35.8-.94,1.59-1.88,2.5-2.72-3.3,5.38-6.69,10.69-11.69,15.07.52.16.87.23,1.2.37.49.2.99.4,1.49.6.2.5.4.99.6,1.49.13.33.21.68.37,1.2.36-.41.72-.81,1.09-1.19-.01.54-.04,1.07-.07,1.61.48-.26.78-.45,1.11-.59.49-.21.98-.42,1.47-.63.49.21.98.42,1.47.63.33.14.63.33,1.11.59-.44-6.63.91-12.78,2.39-18.92.05,1.24-.06,2.47-.16,3.69-.43,5.29-.94,10.59-.16,15.88.1.67.51,1.35.94,1.9.96,1.26,2.12,2.37,3.02,3.67.69,1,1.22,2.1,1.8,3.22.03.01.06.03.09.04.01.03.03.06.04.09,1.12.58,2.22,1.12,3.22,1.8,1.3.9,2.41,2.05,3.67,3.02.55.42,1.23.84,1.9.94,5.3.78,10.59.26,15.88-.16,1.23-.1,2.45-.21,3.69-.16-6.14,1.47-12.29,2.83-18.92,2.39.26.48.45.78.59,1.11.21.49.42.98.63,1.47-.21.49-.42.98-.63,1.47-.14.33-.33.63-.59,1.11.54-.04,1.08-.06,1.61-.07-.39.37-.79.73-1.19,1.09.52.16.87.23,1.2.37.49.2.99.4,1.49.6.2.5.4.99.6,1.49.13.33.21.68.37,1.2,4.37-5,9.68-8.39,15.07-11.69-.84.92-1.79,1.71-2.72,2.5-4.04,3.44-8.15,6.82-11.35,11.12-.4.54-.59,1.31-.68,2.01-.21,1.57-.18,3.18-.46,4.73-.22,1.19-.62,2.35-1,3.55,0,.03.02.06.03.09,0,.03-.02.06-.03.09Z"></path></g></g></svg> 